<svg width="384" height="384" viewBox="0 0 384 384" fill="none" xmlns="http://www.w3.org/2000/svg">
<path d="M221.733 231.819C219.284 233.685 216.438 234.96 213.416 235.545L80.6494 261.257C59.8878 265.278 47.9049 238.527 64.7272 225.712L162.633 151.13C165.082 149.264 167.928 147.989 170.95 147.404L303.717 121.692C324.478 117.671 336.461 144.422 319.639 157.237L221.733 231.819ZM76.2039 342.051C67.4173 348.745 54.8682 347.048 48.1747 338.261L31.5745 316.47C22.586 304.67 29.119 287.535 43.6816 284.715L104.298 272.976C125.06 268.955 137.043 295.706 120.22 308.52L76.2039 342.051ZM351.685 66.6941C360.673 78.4937 354.14 95.6287 339.577 98.4489L278.961 110.188C258.2 114.209 246.217 87.4578 263.039 74.643L307.055 41.1127C315.842 34.4193 328.391 36.1161 335.084 44.9028L351.685 66.6941Z" fill="#818181"/>
<path d="M231.82 161.83C233.686 164.278 234.961 167.125 235.546 170.147L261.258 302.913C265.279 323.675 238.528 335.658 225.713 318.835L151.131 220.929C149.265 218.48 147.99 215.634 147.405 212.612L121.693 79.8458C117.672 59.0842 144.423 47.1013 157.238 63.9236L231.82 161.83ZM342.052 307.359C348.746 316.145 347.049 328.694 338.262 335.388L316.471 351.988C304.671 360.977 287.536 354.444 284.716 339.881L272.977 279.264C268.956 258.503 295.707 246.52 308.521 263.342L342.052 307.359ZM66.6951 31.878C78.4946 22.8894 95.6297 29.4224 98.4499 43.985L110.189 104.601C114.21 125.363 87.4588 137.346 74.644 120.523L41.1137 76.5073C34.4203 67.7206 36.1171 55.1715 44.9038 48.4781L66.6951 31.878Z" fill="#818181"/>
</svg>
