<svg width="384" height="384" viewBox="0 0 384 384" fill="none" xmlns="http://www.w3.org/2000/svg">
<mask id="path-1-inside-1_3025_56" fill="white">
<path d="M221.733 231.819C219.284 233.685 216.438 234.96 213.416 235.545L80.6494 261.257C59.8878 265.278 47.9049 238.527 64.7272 225.712L162.633 151.13C165.082 149.264 167.928 147.989 170.95 147.404L303.717 121.692C324.478 117.671 336.461 144.422 319.639 157.237L221.733 231.819ZM76.2039 342.051C67.4173 348.745 54.8682 347.048 48.1747 338.261L31.5745 316.47C22.586 304.67 29.119 287.535 43.6815 284.715L104.298 272.976C125.06 268.955 137.043 295.706 120.22 308.52L76.2039 342.051ZM351.685 66.6941C360.673 78.4937 354.14 95.6287 339.577 98.4489L278.961 110.188C258.2 114.209 246.217 87.4578 263.039 74.643L307.055 41.1127C315.842 34.4193 328.391 36.1161 335.084 44.9028L351.685 66.6941Z"/>
</mask>
<g filter="url(#filter0_i_3025_56)">
<path d="M221.733 231.819C219.284 233.685 216.438 234.96 213.416 235.545L80.6494 261.257C59.8878 265.278 47.9049 238.527 64.7272 225.712L162.633 151.13C165.082 149.264 167.928 147.989 170.95 147.404L303.717 121.692C324.478 117.671 336.461 144.422 319.639 157.237L221.733 231.819ZM76.2039 342.051C67.4173 348.745 54.8682 347.048 48.1747 338.261L31.5745 316.47C22.586 304.67 29.119 287.535 43.6815 284.715L104.298 272.976C125.06 268.955 137.043 295.706 120.22 308.52L76.2039 342.051ZM351.685 66.6941C360.673 78.4937 354.14 95.6287 339.577 98.4489L278.961 110.188C258.2 114.209 246.217 87.4578 263.039 74.643L307.055 41.1127C315.842 34.4193 328.391 36.1161 335.084 44.9028L351.685 66.6941Z" fill="url(#paint0_linear_3025_56)"/>
</g>
<path d="M104.298 272.976L104.678 274.939L104.298 272.976ZM31.5745 316.47L33.1655 315.258L31.5745 316.47ZM48.1747 338.261L46.5837 339.473L48.1747 338.261ZM303.717 121.692L303.336 119.729L303.717 121.692ZM170.95 147.404L171.331 149.368L170.95 147.404ZM80.6494 261.257L81.0297 263.221L80.6494 261.257ZM213.416 235.545L213.796 237.508L213.416 235.545ZM213.416 235.545L213.036 233.581L80.2691 259.294L80.6494 261.257L81.0297 263.221L213.796 237.508L213.416 235.545ZM64.7272 225.712L65.9392 227.303L163.845 152.721L162.633 151.13L161.421 149.539L63.5153 224.121L64.7272 225.712ZM170.95 147.404L171.331 149.368L304.097 123.656L303.717 121.692L303.336 119.729L170.57 145.441L170.95 147.404ZM319.639 157.237L318.427 155.646L220.521 230.228L221.733 231.819L222.945 233.41L320.851 158.828L319.639 157.237ZM48.1747 338.261L49.7657 337.049L33.1655 315.258L31.5745 316.47L29.9836 317.682L46.5837 339.473L48.1747 338.261ZM43.6815 284.715L44.0618 286.678L104.678 274.939L104.298 272.976L103.918 271.012L43.3013 282.751L43.6815 284.715ZM120.22 308.52L119.008 306.93L74.9919 340.46L76.2039 342.051L77.4159 343.642L121.432 310.111L120.22 308.52ZM339.577 98.4489L339.197 96.4854L278.581 108.224L278.961 110.188L279.342 112.151L339.958 100.412L339.577 98.4489ZM263.039 74.643L264.251 76.234L308.267 42.7037L307.055 41.1127L305.843 39.5218L261.827 73.0521L263.039 74.643ZM335.084 44.9028L333.493 46.1147L350.094 67.9061L351.685 66.6941L353.275 65.4822L336.675 43.6908L335.084 44.9028ZM307.055 41.1127L308.267 42.7037C316.175 36.6796 327.469 38.2068 333.493 46.1147L335.084 44.9028L336.675 43.6908C329.313 34.0255 315.509 32.159 305.843 39.5218L307.055 41.1127ZM278.961 110.188L278.581 108.224C259.896 111.843 249.111 87.7673 264.251 76.234L263.039 74.643L261.827 73.0521C243.323 87.1483 256.504 116.574 279.342 112.151L278.961 110.188ZM339.577 98.4489L339.958 100.412C355.977 97.3102 363.163 78.4617 353.275 65.4822L351.685 66.6941L350.094 67.9061C358.183 78.5257 352.304 93.9472 339.197 96.4854L339.577 98.4489ZM104.298 272.976L104.678 274.939C123.364 271.321 134.148 295.396 119.008 306.93L120.22 308.52L121.432 310.111C139.937 296.015 126.756 266.589 103.918 271.012L104.298 272.976ZM31.5745 316.47L33.1655 315.258C25.0758 304.638 30.9555 289.217 44.0618 286.678L43.6815 284.715L43.3013 282.751C27.2824 285.854 20.0962 304.702 29.9836 317.682L31.5745 316.47ZM48.1747 338.261L46.5837 339.473C53.9465 349.138 67.7505 351.005 77.4159 343.642L76.2039 342.051L74.9919 340.46C67.084 346.484 55.7898 344.957 49.7657 337.049L48.1747 338.261ZM303.717 121.692L304.097 123.656C322.782 120.037 333.567 144.113 318.427 155.646L319.639 157.237L320.851 158.828C339.355 144.731 326.174 115.306 303.336 119.729L303.717 121.692ZM162.633 151.13L163.845 152.721C166.049 151.042 168.611 149.894 171.331 149.368L170.95 147.404L170.57 145.441C167.246 146.084 164.115 147.487 161.421 149.539L162.633 151.13ZM80.6494 261.257L80.2691 259.294C61.5837 262.912 50.7991 238.837 65.9392 227.303L64.7272 225.712L63.5153 224.121C45.0107 238.218 58.1919 267.643 81.0297 263.221L80.6494 261.257ZM213.416 235.545L213.796 237.508C217.12 236.865 220.251 235.462 222.945 233.41L221.733 231.819L220.521 230.228C218.317 231.907 215.755 233.055 213.036 233.581L213.416 235.545Z" fill="white" fill-opacity="0.11" mask="url(#path-1-inside-1_3025_56)"/>
<mask id="path-3-inside-2_3025_56" fill="white">
<path d="M231.82 161.83C233.686 164.278 234.961 167.125 235.546 170.147L261.258 302.913C265.279 323.675 238.528 335.658 225.713 318.835L151.131 220.929C149.265 218.48 147.99 215.634 147.405 212.612L121.693 79.8458C117.672 59.0842 144.423 47.1013 157.238 63.9236L231.82 161.83ZM342.052 307.359C348.746 316.145 347.049 328.694 338.262 335.388L316.471 351.988C304.671 360.977 287.536 354.444 284.716 339.881L272.977 279.264C268.956 258.503 295.707 246.52 308.521 263.342L342.052 307.359ZM66.6951 31.878C78.4946 22.8894 95.6297 29.4224 98.4499 43.985L110.189 104.601C114.21 125.363 87.4588 137.346 74.644 120.523L41.1137 76.5073C34.4203 67.7206 36.1171 55.1715 44.9038 48.4781L66.6951 31.878Z"/>
</mask>
<g filter="url(#filter1_i_3025_56)">
<path d="M231.82 161.83C233.686 164.278 234.961 167.125 235.546 170.147L261.258 302.913C265.279 323.675 238.528 335.658 225.713 318.835L151.131 220.929C149.265 218.48 147.99 215.634 147.405 212.612L121.693 79.8458C117.672 59.0842 144.423 47.1013 157.238 63.9236L231.82 161.83ZM342.052 307.359C348.746 316.145 347.049 328.694 338.262 335.388L316.471 351.988C304.671 360.977 287.536 354.444 284.716 339.881L272.977 279.264C268.956 258.503 295.707 246.52 308.521 263.342L342.052 307.359ZM66.6951 31.878C78.4946 22.8894 95.6297 29.4224 98.4499 43.985L110.189 104.601C114.21 125.363 87.4588 137.346 74.644 120.523L41.1137 76.5073C34.4203 67.7206 36.1171 55.1715 44.9038 48.4781L66.6951 31.878Z" fill="url(#paint1_linear_3025_56)"/>
</g>
<path d="M98.4499 43.985L96.4863 44.3653L98.4499 43.985ZM272.977 279.264L271.013 279.645L272.977 279.264ZM121.693 79.8458L119.73 80.226L121.693 79.8458ZM147.405 212.612L149.369 212.232L147.405 212.612ZM235.546 170.147L237.509 169.766L235.546 170.147ZM231.82 161.83L230.229 163.042L231.82 161.83ZM235.546 170.147L233.582 170.527L259.295 303.293L261.258 302.913L263.222 302.533L237.509 169.766L235.546 170.147ZM225.713 318.835L227.304 317.623L152.722 219.717L151.131 220.929L149.54 222.141L224.122 320.047L225.713 318.835ZM147.405 212.612L149.369 212.232L123.657 79.4655L121.693 79.8458L119.73 80.226L145.442 212.992L147.405 212.612ZM157.238 63.9236L155.647 65.1355L230.229 163.042L231.82 161.83L233.411 160.618L158.829 62.7116L157.238 63.9236ZM338.262 335.388L337.05 333.797L315.259 350.397L316.471 351.988L317.683 353.579L339.474 336.979L338.262 335.388ZM284.716 339.881L286.679 339.501L274.94 278.884L272.977 279.264L271.013 279.645L282.752 340.261L284.716 339.881ZM308.521 263.342L306.931 264.554L340.461 308.571L342.052 307.359L343.643 306.147L310.112 262.13L308.521 263.342ZM98.4499 43.985L96.4863 44.3653L108.225 104.981L110.189 104.601L112.152 104.221L100.413 43.6048L98.4499 43.985ZM74.644 120.523L76.235 119.311L42.7047 75.2953L41.1137 76.5073L39.5227 77.7192L73.0531 121.735L74.644 120.523ZM44.9038 48.4781L46.1157 50.0691L67.9071 33.4689L66.6951 31.878L65.4832 30.287L43.6918 46.8871L44.9038 48.4781ZM41.1137 76.5073L42.7047 75.2953C36.6806 67.3873 38.2077 56.0932 46.1157 50.0691L44.9038 48.4781L43.6918 46.8871C34.0265 54.2499 32.1599 68.0539 39.5227 77.7192L41.1137 76.5073ZM110.189 104.601L108.225 104.981C111.844 123.667 87.7683 134.451 76.235 119.311L74.644 120.523L73.0531 121.735C87.1493 140.24 116.575 127.059 112.152 104.221L110.189 104.601ZM98.4499 43.985L100.413 43.6048C97.3112 27.5859 78.4626 20.3996 65.4832 30.287L66.6951 31.878L67.9071 33.4689C78.5266 25.3792 93.9482 31.2589 96.4863 44.3653L98.4499 43.985ZM272.977 279.264L274.94 278.884C271.322 260.199 295.397 249.414 306.931 264.554L308.521 263.342L310.112 262.13C296.016 243.626 266.59 256.807 271.013 279.645L272.977 279.264ZM316.471 351.988L315.259 350.397C304.639 358.487 289.218 352.607 286.679 339.501L284.716 339.881L282.752 340.261C285.855 356.28 304.703 363.466 317.683 353.579L316.471 351.988ZM338.262 335.388L339.474 336.979C349.139 329.616 351.006 315.812 343.643 306.147L342.052 307.359L340.461 308.571C346.485 316.479 344.958 327.773 337.05 333.797L338.262 335.388ZM121.693 79.8458L123.657 79.4655C120.038 60.7801 144.114 49.9955 155.647 65.1355L157.238 63.9236L158.829 62.7116C144.732 44.2071 115.307 57.3883 119.73 80.226L121.693 79.8458ZM151.131 220.929L152.722 219.717C151.043 217.513 149.895 214.952 149.369 212.232L147.405 212.612L145.442 212.992C146.085 216.317 147.488 219.447 149.54 222.141L151.131 220.929ZM261.258 302.913L259.295 303.293C262.913 321.979 238.838 332.763 227.304 317.623L225.713 318.835L224.122 320.047C238.219 338.552 267.644 325.371 263.222 302.533L261.258 302.913ZM235.546 170.147L237.509 169.766C236.866 166.442 235.463 163.311 233.411 160.618L231.82 161.83L230.229 163.042C231.908 165.246 233.056 167.807 233.582 170.527L235.546 170.147Z" fill="white" fill-opacity="0.11" mask="url(#path-3-inside-2_3025_56)"/>
<defs>
<filter id="filter0_i_3025_56" x="27.4668" y="37.0215" width="328.326" height="311.121" filterUnits="userSpaceOnUse" color-interpolation-filters="sRGB">
<feFlood flood-opacity="0" result="BackgroundImageFix"/>
<feBlend mode="normal" in="SourceGraphic" in2="BackgroundImageFix" result="shape"/>
<feColorMatrix in="SourceAlpha" type="matrix" values="0 0 0 0 0 0 0 0 0 0 0 0 0 0 0 0 0 0 127 0" result="hardAlpha"/>
<feOffset dy="2"/>
<feGaussianBlur stdDeviation="3.15"/>
<feComposite in2="hardAlpha" operator="arithmetic" k2="-1" k3="1"/>
<feColorMatrix type="matrix" values="0 0 0 0 0 0 0 0 0 0 0 0 0 0 0 0 0 0 0.25 0"/>
<feBlend mode="normal" in2="shape" result="effect1_innerShadow_3025_56"/>
</filter>
<filter id="filter1_i_3025_56" x="37.0215" y="27.7695" width="309.121" height="330.326" filterUnits="userSpaceOnUse" color-interpolation-filters="sRGB">
<feFlood flood-opacity="0" result="BackgroundImageFix"/>
<feBlend mode="normal" in="SourceGraphic" in2="BackgroundImageFix" result="shape"/>
<feColorMatrix in="SourceAlpha" type="matrix" values="0 0 0 0 0 0 0 0 0 0 0 0 0 0 0 0 0 0 127 0" result="hardAlpha"/>
<feOffset dy="2"/>
<feGaussianBlur stdDeviation="3.15"/>
<feComposite in2="hardAlpha" operator="arithmetic" k2="-1" k3="1"/>
<feColorMatrix type="matrix" values="0 0 0 0 0 0 0 0 0 0 0 0 0 0 0 0 0 0 0.25 0"/>
<feBlend mode="normal" in2="shape" result="effect1_innerShadow_3025_56"/>
</filter>
<linearGradient id="paint0_linear_3025_56" x1="365.664" y1="122.176" x2="17.8978" y2="261.386" gradientUnits="userSpaceOnUse">
<stop stop-color="#0055FF"/>
<stop offset="1" stop-color="#00A8FC"/>
</linearGradient>
<linearGradient id="paint1_linear_3025_56" x1="122.177" y1="17.8982" x2="261.387" y2="365.665" gradientUnits="userSpaceOnUse">
<stop stop-color="#0055FF"/>
<stop offset="1" stop-color="#00A8FC"/>
</linearGradient>
</defs>
</svg>
