<svg width="623" height="198" viewBox="0 0 623 198" fill="none" xmlns="http://www.w3.org/2000/svg">
<path d="M159.575 -0.000183344V194.182H128.286L36.7887 61.9142H35.1768V194.182H0.000354752V-0.000183344H31.479L122.881 132.362H124.588V-0.000183344H159.575ZM259.913 197.026C245.691 197.026 233.365 193.897 222.935 187.639C212.505 181.382 204.414 172.627 198.662 161.376C192.973 150.124 190.129 136.976 190.129 121.932C190.129 106.888 192.973 93.709 198.662 82.3943C204.414 71.0797 212.505 62.2935 222.935 56.0357C233.365 49.7779 245.691 46.649 259.913 46.649C274.135 46.649 286.461 49.7779 296.891 56.0357C307.321 62.2935 315.38 71.0797 321.069 82.3943C326.821 93.709 329.697 106.888 329.697 121.932C329.697 136.976 326.821 150.124 321.069 161.376C315.38 172.627 307.321 181.382 296.891 187.639C286.461 193.897 274.135 197.026 259.913 197.026ZM260.103 169.53C267.814 169.53 274.262 167.412 279.445 163.177C284.628 158.879 288.484 153.127 291.012 145.921C293.604 138.715 294.9 130.687 294.9 121.838C294.9 112.925 293.604 104.866 291.012 97.6596C288.484 90.3904 284.628 84.6067 279.445 80.3084C274.262 76.0101 267.814 73.861 260.103 73.861C252.201 73.861 245.627 76.0101 240.381 80.3084C235.198 84.6067 231.31 90.3904 228.719 97.6596C226.19 104.866 224.926 112.925 224.926 121.838C224.926 130.687 226.19 138.715 228.719 145.921C231.31 153.127 235.198 158.879 240.381 163.177C245.627 167.412 252.201 169.53 260.103 169.53ZM483.962 48.5453L432.098 194.182H394.171L342.307 48.5453H378.906L412.376 156.73H413.893L447.458 48.5453H483.962ZM545.449 197.121C536.221 197.121 527.908 195.477 520.513 192.191C513.18 188.84 507.365 183.91 503.067 177.399C498.832 170.889 496.714 162.861 496.714 153.316C496.714 145.099 498.231 138.304 501.265 132.931C504.299 127.558 508.44 123.26 513.686 120.036C518.933 116.812 524.843 114.379 531.417 112.735C538.054 111.029 544.912 109.796 551.992 109.037C560.525 108.153 567.446 107.362 572.756 106.667C578.066 105.909 581.922 104.771 584.324 103.254C586.789 101.673 588.021 99.2399 588.021 95.9529V95.3841C588.021 88.2413 585.904 82.7104 581.669 78.7914C577.434 74.8723 571.334 72.9128 563.369 72.9128C554.962 72.9128 548.294 74.7459 543.363 78.4121C538.496 82.0783 535.209 86.4082 533.503 91.4018L501.455 86.8507C503.983 78.0012 508.155 70.6056 513.971 64.6639C519.786 58.6589 526.897 54.171 535.304 51.2001C543.711 48.166 553.003 46.649 563.18 46.649C570.196 46.649 577.181 47.4707 584.134 49.1142C591.087 50.7576 597.44 53.4757 603.192 57.2683C608.944 60.9977 613.558 66.0861 617.035 72.5336C620.575 78.981 622.345 87.0403 622.345 96.7115V194.182H589.349V174.176H588.211C586.125 178.221 583.186 182.014 579.393 185.553C575.664 189.03 570.955 191.843 565.266 193.992C559.64 196.078 553.035 197.121 545.449 197.121ZM554.362 171.9C561.252 171.9 567.225 170.541 572.282 167.823C577.339 165.042 581.226 161.376 583.944 156.824C586.726 152.273 588.116 147.311 588.116 141.938V124.777C587.042 125.662 585.209 126.483 582.617 127.242C580.089 128.001 577.244 128.664 574.084 129.233C570.923 129.802 567.794 130.308 564.697 130.75C561.6 131.193 558.913 131.572 556.638 131.888C551.517 132.583 546.935 133.721 542.889 135.301C538.844 136.882 535.652 139.094 533.313 141.938C530.974 144.72 529.805 148.323 529.805 152.747C529.805 159.068 532.112 163.841 536.726 167.064C541.341 170.288 547.219 171.9 554.362 171.9Z" fill="url(#paint0_linear_3036_89)"/>
<defs>
<linearGradient id="paint0_linear_3036_89" x1="639.848" y1="-46.9181" x2="629.518" y2="261.974" gradientUnits="userSpaceOnUse">
<stop stop-color="#0055FF"/>
<stop offset="1" stop-color="#00A8FC"/>
</linearGradient>
</defs>
</svg>
